<?xml version="1.0" standalone="no"?>
<!DOCTYPE svg PUBLIC "-//W3C//DTD SVG 20010904//EN"
 "http://www.w3.org/TR/2001/REC-SVG-20010904/DTD/svg10.dtd">
<svg version="1.0" xmlns="http://www.w3.org/2000/svg"
 width="512.000000pt" height="512.000000pt" viewBox="0 0 512.000000 512.000000"
 preserveAspectRatio="xMidYMid meet">

<g transform="translate(0.000000,512.000000) scale(0.100000,-0.100000)"
fill="#000000" stroke="none">
<path d="M2551 5036 c-59 -21 -108 -72 -150 -156 -95 -191 -123 -355 -147
-882 l-6 -128 -224 0 -224 0 0 23 c0 19 8 25 49 36 93 24 165 110 190 229 6
29 11 96 11 148 0 149 -39 676 -52 691 -16 19 -55 16 -70 -6 -11 -16 -11 -62
4 -283 31 -480 24 -575 -51 -649 -29 -29 -47 -39 -86 -44 -97 -12 -95 -9 -95
-137 0 -106 11 -347 26 -555 l6 -93 -77 0 -77 0 6 73 c11 127 25 418 28 549 2
138 -4 158 -51 158 -41 0 -113 41 -139 79 -59 90 -65 180 -38 614 17 287 16
307 -29 307 -37 0 -55 -26 -55 -78 0 -26 -7 -150 -15 -277 -19 -294 -19 -400
0 -483 29 -126 101 -215 197 -244 30 -9 38 -16 38 -35 l0 -23 -330 0 -330 0 0
110 0 110 104 0 c82 0 108 3 120 16 13 13 16 45 16 194 0 173 -1 179 -22 194
-19 14 -62 16 -270 16 -235 0 -249 -1 -268 -20 -18 -18 -20 -33 -20 -188 0
-219 -4 -212 136 -212 l104 0 0 -110 0 -110 -153 0 c-122 0 -157 -3 -175 -16
-22 -15 -22 -16 -22 -323 l0 -308 -42 -13 c-110 -32 -191 -108 -224 -207 -18
-54 -19 -93 -19 -588 0 -484 2 -533 17 -567 23 -48 73 -105 109 -124 l29 -15
0 -483 0 -484 -45 -22 c-54 -26 -92 -72 -111 -136 -21 -71 -20 -451 2 -482
l15 -22 2344 0 c2117 0 2345 2 2359 16 14 14 16 101 16 815 l0 799 40 25 c44
28 94 98 110 155 6 21 10 238 10 535 0 540 -2 560 -54 650 -35 59 -107 112
-178 132 l-58 16 0 308 c0 307 0 308 -22 323 -18 13 -54 16 -180 16 l-158 0 0
110 0 110 104 0 c82 0 108 3 120 16 13 13 16 45 16 194 0 173 -1 179 -22 194
-19 14 -62 16 -270 16 -235 0 -249 -1 -268 -20 -18 -18 -20 -33 -20 -193 0
-216 -6 -207 138 -207 l102 0 0 -110 0 -110 -327 0 -328 1 39 20 c135 72 216
249 217 474 0 201 -68 381 -191 506 -89 90 -160 124 -260 124 -103 -1 -188
-40 -276 -130 -116 -118 -176 -282 -176 -475 2 -215 79 -392 216 -492 l39 -28
-221 0 -222 0 0 153 c-1 83 -5 326 -10 540 -8 350 -10 391 -27 420 -34 59
-114 81 -192 53z m109 -108 c5 -13 13 -320 19 -683 6 -363 14 -740 17 -837 l6
-178 -60 0 -60 0 -4 124 c-3 121 -4 126 -31 154 -26 27 -69 51 -159 86 l-38
15 0 203 c0 393 29 721 76 870 57 179 120 268 190 268 26 0 37 -5 44 -22z
m858 -54 c99 -49 198 -188 238 -335 26 -92 24 -272 -4 -356 -25 -79 -72 -153
-119 -189 -20 -15 -66 -36 -102 -46 -35 -10 -68 -23 -73 -30 -4 -7 -8 -31 -8
-53 0 -43 15 -353 26 -527 l7 -108 -63 0 -63 0 7 138 c29 543 28 572 -26 572
-37 0 -105 39 -147 85 -81 88 -123 211 -125 365 -1 168 53 310 158 416 96 95
194 118 294 68z m-2518 -574 l0 -110 -190 0 -190 0 0 110 0 110 190 0 190 0 0
-110z m3510 0 l0 -110 -190 0 -190 0 0 110 0 110 190 0 190 0 0 -110z m-3595
-590 l0 -55 -150 -2 c-82 -2 -174 0 -202 3 l-53 5 0 55 0 55 203 -3 202 -3 0
-55z m595 13 c0 -27 -4 -53 -8 -60 -5 -8 -73 -11 -247 -10 l-240 2 -3 44 c-6
75 -20 71 253 71 l245 0 0 -47z m740 -13 l0 -59 -172 3 c-95 2 -194 4 -220 5
l-46 1 -4 50 -3 49 60 4 c33 2 133 4 223 5 l162 2 0 -60z m1030 0 l0 -60 -192
4 c-106 2 -217 5 -245 5 l-53 1 0 50 0 49 58 4 c31 2 141 4 245 5 l187 2 0
-60z m835 0 l0 -55 -209 0 c-115 0 -240 1 -278 3 l-68 4 0 49 0 48 58 4 c31 2
156 3 277 3 l220 -1 0 -55z m515 1 l0 -58 -207 1 -208 1 -3 44 c-2 24 -1 49 2
56 4 10 51 14 210 14 l206 1 0 -59z m109 -592 c64 -13 124 -57 153 -111 23
-43 23 -43 26 -568 l2 -525 -23 -40 c-33 -57 -88 -87 -155 -82 -81 6 -152 72
-152 143 0 36 -29 74 -55 74 -26 0 -55 -38 -55 -73 0 -22 -11 -49 -31 -76 -51
-72 -128 -89 -209 -48 -51 25 -90 83 -90 133 0 40 -30 69 -64 60 -25 -6 -30
-15 -40 -76 -8 -48 -40 -96 -78 -120 -41 -25 -117 -26 -165 -3 -37 17 -78 71
-87 113 -3 14 -7 37 -10 52 -13 59 -96 38 -96 -25 0 -46 -39 -108 -85 -135
-101 -58 -245 17 -245 128 0 31 -29 70 -53 70 -27 0 -47 -27 -56 -74 -22 -119
-130 -177 -235 -126 -52 25 -96 87 -96 135 0 32 -25 65 -48 65 -26 0 -52 -32
-52 -64 0 -42 -38 -105 -79 -133 -24 -16 -48 -23 -83 -23 -96 0 -155 50 -170
144 -7 49 -27 76 -55 76 -25 0 -53 -39 -53 -73 0 -44 -46 -108 -93 -130 -98
-47 -218 15 -234 120 -8 50 -19 70 -43 78 -35 11 -57 -10 -64 -62 -8 -60 -44
-115 -89 -137 -51 -24 -127 -21 -168 7 -40 27 -79 91 -79 131 0 32 -25 66 -48
66 -26 0 -52 -32 -52 -64 -1 -86 -91 -161 -183 -153 -77 7 -147 75 -147 143 0
36 -29 74 -55 74 -26 0 -55 -38 -55 -74 0 -40 -34 -92 -79 -123 -47 -32 -125
-32 -171 0 -49 32 -72 69 -77 122 -7 56 -39 85 -77 67 -18 -8 -25 -21 -30 -59
-12 -96 -78 -153 -174 -153 -63 0 -109 30 -140 90 -22 44 -22 46 -22 541 0
535 2 555 54 623 25 34 76 63 131 77 51 12 4277 11 4334 -2z m-3584 -1405 c92
-44 207 -25 287 45 l42 38 23 -28 c30 -35 99 -69 160 -77 l48 -7 3 -428 3
-427 -352 0 -352 0 -49 46 c-58 54 -133 91 -217 105 l-61 11 0 364 c0 200 2
364 4 364 2 0 21 -7 42 -16 28 -12 58 -15 104 -12 73 6 130 31 174 77 l30 31
30 -32 c17 -17 54 -42 81 -54z m865 0 c26 -14 56 -19 115 -19 89 0 137 19 189
74 l29 30 31 -31 c17 -17 55 -42 83 -55 l53 -24 0 -755 0 -754 -355 0 -354 0
-1 765 0 764 44 30 c24 17 47 38 50 47 6 15 12 12 44 -18 20 -20 53 -44 72
-54z m897 -8 c98 -34 209 -9 278 62 l30 31 43 -40 42 -40 0 -284 0 -285 -140
0 c-127 0 -142 -2 -160 -20 -19 -19 -20 -33 -20 -485 l0 -465 -185 0 -185 0 2
757 3 756 43 15 c23 7 59 30 80 50 l37 37 43 -37 c24 -20 64 -44 89 -52z m845
15 c103 -52 215 -37 297 38 l41 38 22 -25 c13 -13 43 -36 68 -50 38 -23 57
-27 120 -27 41 0 87 4 103 9 l27 8 0 -441 0 -441 -355 0 -355 0 0 144 c0 184
9 176 -182 176 l-138 0 0 269 0 268 58 6 c67 6 124 32 166 76 l29 30 19 -24
c10 -13 46 -37 80 -54z m-3276 -290 l-106 -106 0 76 c0 72 1 76 33 105 17 17
53 39 79 48 26 10 58 26 70 36 l23 18 3 -36 c3 -33 -3 -42 -102 -141z m4124
129 c0 -3 -13 -19 -30 -35 l-30 -29 0 57 0 58 30 -23 c17 -12 30 -25 30 -28z
m128 -26 c12 -2 22 -10 22 -17 0 -7 -47 -59 -105 -117 l-105 -105 0 75 0 74
52 53 c54 55 52 54 136 37z m-4253 -303 l-105 -106 0 75 0 75 103 103 102 102
3 -72 3 -72 -106 -105z m4170 -30 l-105 -106 0 75 0 75 103 103 102 102 3 -72
3 -72 -106 -105z m-4170 -170 l-105 -106 0 75 0 75 103 103 102 102 3 -72 3
-72 -106 -105z m4170 -30 l-105 -106 0 75 0 75 103 103 102 102 3 -72 3 -72
-106 -105z m-4065 36 l0 -42 -66 -22 -67 -21 64 64 c35 35 65 64 66 64 2 0 3
-19 3 -43z m4065 -236 l-105 -106 0 75 0 75 103 103 102 102 3 -72 3 -72 -106
-105z m-1140 105 c13 -19 14 -29 5 -45 -18 -34 -44 -41 -162 -41 -128 0 -158
11 -158 59 0 47 13 51 162 51 135 0 138 -1 153 -24z m-2699 -45 c27 -12 64
-36 83 -54 33 -31 81 -118 81 -146 0 -24 32 -51 59 -51 50 0 105 -22 138 -55
18 -18 33 -38 33 -44 0 -8 -143 -11 -501 -11 l-502 0 6 37 c9 54 37 86 88 101
65 19 70 23 89 74 9 25 27 60 39 77 25 34 95 79 144 92 57 15 189 3 243 -20z
m3839 -260 l-105 -106 0 75 0 75 103 103 102 102 3 -72 3 -72 -106 -105z
m-2945 69 c0 -56 -2 -60 -23 -60 -16 0 -70 -48 -182 -160 -88 -88 -163 -160
-167 -160 -5 0 -8 30 -8 67 l0 68 92 92 c80 80 89 93 68 93 -17 0 -47 -22 -97
-72 -69 -68 -73 -71 -73 -45 0 15 -6 43 -14 61 -10 25 -11 37 -3 45 8 8 6 11
-8 11 -11 0 -40 16 -65 36 -25 20 -69 42 -102 51 -32 9 -58 20 -58 25 0 4 144
8 320 8 l320 0 0 -60z m2678 54 l52 -7 0 -48 0 -49 -55 0 -55 0 0 -72 0 -73
-92 -92 -93 -93 -75 0 -75 0 160 160 c135 135 156 160 135 160 -19 0 -64 -39
-185 -160 l-160 -160 -75 0 -75 0 160 160 c134 134 156 160 135 160 -19 0 -65
-40 -187 -162 l-163 -163 0 75 0 75 87 87 c76 76 84 88 63 88 -17 0 -45 -20
-87 -62 l-63 -62 0 39 c0 22 -3 77 -7 123 l-6 82 304 0 c167 0 328 -3 357 -6z
m-873 -28 c13 -19 14 -29 5 -45 -18 -34 -44 -41 -162 -41 -128 0 -158 11 -158
59 0 47 13 51 162 51 135 0 138 -1 153 -24z m1140 -295 l-105 -106 0 75 0 75
103 103 102 102 3 -72 3 -72 -106 -105z m-3027 -28 l-83 -83 -75 0 -75 0 155
155 155 155 3 -72 3 -72 -83 -83z m3128 -70 c-4 -9 -27 -13 -83 -13 l-78 0 80
80 80 81 3 -67 c2 -37 1 -73 -2 -81z m-426 52 l0 -65 -67 0 -67 0 64 65 c35
36 66 65 67 65 2 0 3 -29 3 -65z m-1020 -60 l0 -115 -110 0 -110 0 0 115 0
115 110 0 110 0 0 -115z m-2090 -5 l0 -110 -505 0 -505 0 0 110 0 110 505 0
505 0 0 -110z m490 55 l0 -55 -57 0 -57 0 54 55 c30 30 56 55 57 55 2 0 3 -25
3 -55z m1740 51 c0 -2 -7 -9 -15 -16 -12 -10 -15 -10 -15 4 0 9 7 16 15 16 8
0 15 -2 15 -4z m180 -9 c0 -7 -19 -32 -43 -55 -41 -40 -45 -42 -105 -42 -42 0
-62 4 -62 12 0 7 19 32 42 55 41 42 44 43 105 43 45 0 63 -4 63 -13z m0 -82
c0 -8 -7 -15 -16 -15 -14 0 -14 3 -4 15 7 8 14 15 16 15 2 0 4 -7 4 -15z"/>
<path d="M1516 4988 c-11 -18 -16 -89 -21 -328 -7 -303 -7 -305 14 -324 17
-16 25 -17 46 -8 13 6 27 22 29 34 3 13 7 158 10 324 4 223 2 304 -6 312 -19
19 -56 14 -72 -10z"/>
<path d="M1730 4995 c-10 -12 -11 -83 -6 -328 7 -286 9 -314 26 -331 16 -17
23 -18 44 -8 14 6 28 22 32 36 10 41 -15 617 -27 633 -15 18 -54 17 -69 -2z"/>
</g>
</svg>
